<?xml version="1.0"?>
<svg width="640" height="480" xmlns="http://www.w3.org/2000/svg" xmlns:svg="http://www.w3.org/2000/svg">
 <!-- Created with SVG-edit - https://github.com/SVG-Edit/svgedit-->
 <defs>
  <filter id="svg_48_blur">
   <feGaussianBlur in="SourceGraphic" stdDeviation="1.2"/>
  </filter>
 </defs>
 <g class="layer">
  <title>Layer 1</title>
  <path d="0" fill="#FF0000" id="svg_8" stroke-width="5"/>
  <polygon cx="103.5" cy="183.5" edge="0" fill="#FF0000" id="svg_10" orient="x" shape="regularPoly" sides="5" strokeWidth="5" strokecolor="none"/>
  <polygon cx="249.5" cy="163.5" edge="0" fill="#FF0000" id="svg_12" orient="x" shape="regularPoly" sides="5" strokeWidth="5" strokecolor="none"/>
  <polygon cx="423.5" cy="118.5" edge="0" fill="#FF0000" id="svg_13" orient="x" shape="regularPoly" sides="5" strokeWidth="5" strokecolor="none"/>
  <polygon cx="423.5" cy="118.5" edge="0" fill="#FF0000" id="svg_14" orient="x" shape="regularPoly" sides="5" strokeWidth="5" strokecolor="none"/>
  <polygon cx="423.5" cy="118.5" edge="0" fill="#FF0000" id="svg_15" orient="x" shape="regularPoly" sides="5" strokeWidth="5" strokecolor="none"/>
  <polygon cx="437.5" cy="448.5" edge="0" fill="#FF0000" id="svg_18" orient="x" shape="regularPoly" sides="5" strokeWidth="5" strokecolor="none"/>
  <g id="svg_74">
   <text fill="#000000" font-family="Monospace" font-size="24" font-style="normal" font-weight="bold" id="svg_32" stroke="#007f7f" stroke-dasharray="null" stroke-linecap="null" stroke-linejoin="null" stroke-width="0" text-anchor="middle" transform="matrix(0.534407, -1.63618e-14, 1.64358e-14, 0.531999, 8.63489, 106.526)" x="152.437229" xml:space="preserve" y="8.275905">D.I.T.M</text>
   <path d="m46.506901,115.81036c18.719642,6.067447 23.551105,8.631558 21.39699,11.355618c-4.207898,5.321292 1.813116,10.318646 17.996021,14.936428c20.295123,5.791224 44.753102,-0.793221 59.918447,-16.130915c5.886307,-5.953212 12.089246,-13.213176 13.784276,-16.133291c1.695009,-2.920115 1.575657,-0.048883 -0.265256,6.380493c-9.209323,32.163415 -36.347069,53.408185 -70.760848,55.39513c-13.721438,0.79221 -40.88109,-7.824979 -46.90003,-14.880425c-1.705125,-1.99876 -5.254652,-2.331437 -7.887812,-0.739261c-4.306232,2.603813 -5.149939,0.587242 -8.391771,-20.057529c-1.98231,-12.623828 -3.483876,-24.079862 -3.336801,-25.457855c0.147088,-1.378003 11.148131,1.021218 24.446785,5.3316l-0.000001,0.000007zm88.556633,-32.659909c-18.719643,-6.06744 -23.551114,-8.631569 -21.397003,-11.355608c4.207914,-5.321274 -1.813109,-10.318646 -17.996008,-14.936438c-20.29513,-5.791224 -44.753126,0.793235 -59.918466,16.130918c-5.886313,5.953204 -12.089221,13.21318 -13.784244,16.133294c-1.695037,2.920108 -1.575674,0.048879 0.265241,-6.380493c9.209321,-32.163426 36.347061,-53.408203 70.760858,-55.395126c13.721424,-0.792235 40.88108,7.824975 46.900008,14.880407c1.705137,1.998775 5.254669,2.331422 7.887803,0.739268c4.306258,-2.603817 5.149943,-0.587246 8.391794,20.057522c1.982305,12.623814 3.483861,24.079862 3.336801,25.457855c-0.147092,1.378007 -11.148125,-1.02121 -24.446782,-5.331597l-0.000003,-0.000004z" fill="#007f7f" filter="url(#svg_48_blur)" id="svg_48" opacity="0.7" stroke="#000000" stroke-dasharray="null" stroke-linecap="null" stroke-linejoin="null"/>
   <path d="m93.049721,89.32014c-1.241477,-0.494572 -1.737191,-1.853827 -1.737191,-1.853827s-0.559323,0.307879 -0.559323,-0.556803s0.559323,0.556803 1.118646,-2.781833c0,0 1.55075,-0.433433 1.241477,-4.017718l-0.372882,0c0,0 0.931108,-3.832117 0,-5.130233c-0.932205,-1.298116 -1.30399,-2.162799 -3.353744,-2.781833s-1.302893,-0.495664 -2.793324,-0.432341c-1.490431,0.062231 -2.733005,0.864683 -2.733005,1.297024c0,0 -0.931108,0.062231 -1.302893,0.433433c-0.372882,0.371202 -0.993621,2.100568 -0.993621,2.534001s0.310369,3.338636 0.620739,3.956579l-0.369592,0.12337c-0.310369,3.584285 1.241477,4.017718 1.241477,4.017718c0.558226,3.338636 1.117549,1.91715 1.117549,2.781833s-0.559323,0.556803 -0.559323,0.556803s-0.495714,1.359255 -1.737191,1.853827c-1.241477,0.493481 -8.133212,3.150852 -8.693632,3.707655c-0.56042,0.557895 -0.49681,3.153035 -0.49681,3.153035l29.553084,0c0,0 0.064706,-2.59514 -0.495714,-3.153035c-0.561516,-0.556803 -7.453251,-3.214174 -8.694729,-3.707655zm-13.675992,-0.187785c-0.108574,-0.196519 -0.162313,-0.338449 -0.162313,-0.338449s-0.473779,0.260933 -0.473779,-0.471645s0.473779,0.471645 0.947559,-2.357134c0,0 1.314957,-0.366835 1.051746,-3.405234l-0.315853,0c0,0 0.15683,-0.645237 0.259921,-1.456423c-0.004387,-0.336266 0.00658,-0.694366 0.040578,-1.087404l0.041675,-0.465095c-0.023031,-0.537151 -0.117348,-1.025173 -0.342174,-1.338511c-0.789632,-1.099414 -1.105485,-1.833084 -2.841579,-2.357134c-1.736094,-0.52405 -1.105485,-0.420332 -2.3678,-0.366835c-1.263412,0.052405 -2.316255,0.732578 -2.316255,1.100505c0,0 -0.789632,0.052405 -1.105485,0.366835c-0.297209,0.29587 -0.773182,1.596169 -0.830211,2.057989l0,0.306788c0.051545,0.712927 0.282952,2.673748 0.514358,3.135567l-0.313659,0.10481c-0.262114,3.038399 1.051746,3.405234 1.051746,3.405234c0.473779,2.828779 0.947559,1.624555 0.947559,2.357134s-0.473779,0.471645 -0.473779,0.471645s-0.42004,1.154002 -1.472884,1.571059c-0.066899,0.026203 -0.152443,0.061139 -0.254437,0.100443l0,5.71433l0.630609,0c-0.031805,-1.395284 0.084447,-3.195614 0.818147,-3.923826c0.390429,-0.387579 1.670292,-1.025173 6.966311,-3.124649zm24.489567,-9.88708c-0.043868,-0.41269 -0.139282,-0.780616 -0.32024,-1.032816c-0.788536,-1.100505 -1.105485,-1.833084 -2.840483,-2.357134c-1.737191,-0.52405 -1.105485,-0.420332 -2.368897,-0.366835c-1.262315,0.052405 -2.315158,0.732578 -2.315158,1.100505c0,0 -0.788536,0.052405 -1.105485,0.366835c-0.297209,0.296962 -0.777568,1.607087 -0.831307,2.064539l0.036191,0l0.087737,0.996787c0.021934,0.252199 0.024128,0.476012 0.029611,0.704192c0.098704,0.72712 0.230309,1.473891 0.361915,1.734824l-0.313659,0.10481c-0.262114,3.038399 1.052843,3.405234 1.052843,3.405234c0.473779,2.828779 0.946462,1.624555 0.946462,2.357134s-0.473779,0.471645 -0.473779,0.471645s-0.058126,0.155032 -0.178764,0.369019c5.231314,2.074365 6.500209,2.707592 6.886251,3.094079c0.734797,0.728211 0.849951,2.52745 0.818147,3.923826l0.526422,0l0,-5.792938c-0.017547,-0.006551 -0.041675,-0.016377 -0.057029,-0.022927c-1.051746,-0.418148 -1.472884,-1.571059 -1.472884,-1.571059s-0.474876,0.260933 -0.474876,-0.471645s0.474876,0.471645 0.947559,-2.357134c0,0 0.881756,-0.250016 1.056133,-2.009951l0,-1.339603c-0.001097,-0.019652 -0.001097,-0.036028 -0.00329,-0.05568l-0.31695,0c0,0 0.235793,-0.971676 0.32024,-2.031786l0,-1.283923l0.00329,0z" fill="#007f7f" id="svg_51" stroke="#000000" stroke-dasharray="null" stroke-linecap="null" stroke-linejoin="null"/>
  </g>
 </g>
</svg>